PathFileType	4	(X/Y/Z)	C:/Users/opensim2020/Desktop/walking_exp_matlab/subject06_walking15_straight_02.trc																																																																																																																																											
DataRate	CameraRate	NumFrames	NumMarkers	Units	OrigDataRate	OrigDataStartFrame	OrigNumFrames																																																																																																																																							
100	100	8	47	mm	100	1546	218																																																																																																																																							
Frame#	Time	LFHD			RFHD			LBHD			RBHD			C7			T10			CLAV			STRN			RBAK			LSHO			LUPA			LELB			LFRM			LWRA			LWRB			LFIN			RSHO			RUPA			RELB			RFRM			RWRA			RWRB			RFIN			LASI			RASI			LPSI			RPSI			LTHI			LKNE			LTIB			LANK			LHEE			LTOE			RTHI			RKNE			RTIB			RANK			RHEE			RTOE			*39			*40			*41			*42			*43			*44			*45			*46		
		X1	Y1	Z1	X2	Y2	Z2	X3	Y3	Z3	X4	Y4	Z4	X5	Y5	Z5	X6	Y6	Z6	X7	Y7	Z7	X8	Y8	Z8	X9	Y9	Z9	X10	Y10	Z10	X11	Y11	Z11	X12	Y12	Z12	X13	Y13	Z13	X14	Y14	Z14	X15	Y15	Z15	X16	Y16	Z16	X17	Y17	Z17	X18	Y18	Z18	X19	Y19	Z19	X20	Y20	Z20	X21	Y21	Z21	X22	Y22	Z22	X23	Y23	Z23	X24	Y24	Z24	X25	Y25	Z25	X26	Y26	Z26	X27	Y27	Z27	X28	Y28	Z28	X29	Y29	Z29	X30	Y30	Z30	X31	Y31	Z31	X32	Y32	Z32	X33	Y33	Z33	X34	Y34	Z34	X35	Y35	Z35	X36	Y36	Z36	X37	Y37	Z37	X38	Y38	Z38	X39	Y39	Z39	X40	Y40	Z40	X41	Y41	Z41	X42	Y42	Z42	X43	Y43	Z43	X44	Y44	Z44	X45	Y45	Z45	X46	Y46	Z46	X47	Y47	Z47
																																																																																																																																														
55	0.54	-796.31	1652.89368	916.86548	-783.42535	1650.71484	1048.55066	-929.35248	1599.80542	933.37231	-914.34705	1602.71021	1061.93164	-924.74139	1444.48694	997.16162	-958.23303	1115.94995	1009.72559	-813.47858	1369.22839	991.67096	-773.33905	1195.34363	992.60571	-991.65759	1277.19153	1086.14539	-883.95349	1396.51965	834.12683	-931.34564	1200.94604	766.83752	-961.52106	1092.60754	759.83246	-972.97827	942.25586	739.41754	-939.43555	816.88043	780.04541	-1001.86438	826.69617	743.95825	-980.26581	737.32318	743.98035	-851.21533	1406.27283	1153.71558	-861.69537	1212.31628	1255.5824	-828.60089	1097.2478	1273.9491	-759.51331	1000.73596	1282.98352	-641.38739	917.32031	1233.45044	-682.85535	887.71008	1276.8761	-611.1709	845.59473	1272.27979	-776.18073	958.20593	904.6637	-789.73682	959.67279	1123.27344	-936.08099	981.91528	922.00177	-938.99237	987.65204	1090.77454	-777.86053	648.0127	837.7757	-719.52466	497.58331	865.95013	-715.91748	243.00421	873.77063	-682.53131	72.52473	911.56049	-711.50964	53.53986	963.4895	-537.54242	60.96573	894.71454	-878.33173	624.77185	1162.91687	-895.51508	499.6358	1137.72852	-998.92792	250.68285	1128.5376	-1056.71021	73.94408	1078.86047	-1101.89355	54.52822	1035.59314	-907.19299	29.89649	1073.97839	-890.00806	1696.23975	982.94397	NaN	NaN	NaN	NaN	NaN	NaN	NaN	NaN	NaN	NaN	NaN	NaN	NaN	NaN	NaN	NaN	NaN	NaN	NaN	NaN	NaN
56	0.55	-786.70074	1651.38159	916.9126	-773.72125	1649.23511	1048.51917	-919.6084	1598.21545	933.46667	-904.68341	1601.25806	1062.01025	-915.16376	1443.02625	997.2276	-948.79071	1114.48547	1009.37897	-803.77228	1367.79614	991.77423	-763.7215	1193.99048	992.89319	-982.22729	1275.76013	1086.24866	-874.26099	1395.0177	834.17432	-923.11755	1199.96716	767.24481	-954.40778	1091.82385	760.46075	-967.44141	941.66302	739.92181	-935.63965	815.97729	781.03711	-997.26727	826.29602	744.76288	-976.71173	736.68951	745.11572	-841.78973	1404.9176	1153.71497	-850.96796	1211.18066	1255.89319	-816.888	1096.38477	1274.27893	-746.82965	1000.6817	1282.93726	-628.01605	918.68433	1232.72229	-668.94501	888.5246	1276.21521	-596.69489	847.38574	1271.47363	-765.95337	956.8847	905.12604	-780.36182	958.48627	1123.81177	-926.05542	980.28607	921.73737	-930.01422	986.15753	1090.51123	-770.68213	645.71625	837.65088	-712.61029	494.8457	866.49158	-697.52765	240.7764	874.44598	-654.43005	72.25509	911.8595	-682.08282	51.86205	963.82825	-508.55499	67.00161	894.79486	-871.03357	623.99384	1162.95862	-889.6889	499.09296	1138.17236	-996.37659	251.13669	1128.5459	-1056.20813	75.18445	1078.78198	-1101.38391	56.20271	1035.34595	-907.20404	29.88678	1074.09265	-880.26508	1694.76428	982.89746	NaN	NaN	NaN	NaN	NaN	NaN	NaN	NaN	NaN	NaN	NaN	NaN	NaN	NaN	NaN	NaN	NaN	NaN	NaN	NaN	NaN
57	0.56	-777	1649.86194	916.8017	-763.91199	1647.77441	1048.4552	-909.92865	1596.78284	933.48413	-895.14636	1599.89148	1062.28784	-905.49585	1441.58044	997.23425	-939.2641	1112.97949	1008.90479	-794.05066	1366.41162	991.90338	-754.14343	1192.59082	993.15356	-972.7301	1274.32446	1086.23669	-864.46124	1393.47156	834.20612	-914.57648	1198.84558	767.59058	-946.98901	1090.95154	761.05573	-961.33234	940.78192	740.92871	-930.1391	814.92438	781.35706	-992.30383	825.73901	745.7038	-972.76959	735.92126	746.22491	-832.34479	1403.50671	1153.74011	-840.34442	1209.92053	1256.16467	-805.28418	1095.37744	1274.53235	-734.25684	1000.38098	1282.72534	-614.87366	919.72412	1231.79773	-655.19153	889.0636	1275.61987	-582.42682	848.60773	1270.24646	-755.57623	955.48224	905.51404	-770.84125	957.4928	1124.36511	-915.63263	978.53992	921.32324	-920.79993	984.60522	1090.14307	-762.66132	643.1142	837.38507	-705.64789	491.7901	866.53815	-679.96899	238.76396	875.40771	-627.99701	72.7094	912.70026	-654.43073	51.3116	964.91589	-481.5817	73.90044	895.02985	-863.54291	623.31116	1163.29199	-883.39886	498.41254	1138.64893	-993.80884	251.75552	1128.79236	-1055.77795	76.51752	1078.85986	-1100.93408	57.96873	1035.198	-907.06702	29.77489	1074.10181	-870.5495	1693.25671	982.9162	NaN	NaN	NaN	NaN	NaN	NaN	NaN	NaN	NaN	NaN	NaN	NaN	NaN	NaN	NaN	NaN	NaN	NaN	NaN	NaN	NaN
58	0.57	-767.22601	1648.36377	916.71417	-754.12347	1646.349	1048.3468	-900.14612	1595.3407	933.43365	-885.09198	1598.42273	1061.99353	-895.83118	1440.21997	997.20148	-929.62347	1111.51746	1008.35754	-784.3075	1365.02185	991.91583	-744.41522	1191.26428	993.3205	-963.24432	1272.92847	1086.1842	-854.52283	1391.84778	834.08649	-905.76764	1197.61792	767.93475	-939.10327	1089.97852	761.60602	-955.03522	940.02686	741.25861	-924.82635	813.90399	781.90588	-986.87787	825.17279	746.60242	-968.31427	735.13086	747.20581	-822.78516	1402.09924	1153.7356	-829.78113	1208.56763	1256.3335	-793.76434	1094.2616	1274.71033	-721.95776	999.92645	1282.39807	-602.20758	920.42889	1230.8064	-641.92096	889.36865	1274.81018	-569.02722	849.81262	1269.18713	-745.17261	954.09393	905.80664	-761.27057	956.5592	1124.91223	-905.52032	976.99658	920.91504	-911.5636	983.02429	1089.60498	-754.49414	640.77563	836.117	-698.5434	488.56427	866.36896	-663.1286	237.29445	876.565	-603.58612	73.7977	913.96021	-628.84247	51.79746	966.73956	-456.84674	80.74152	895.61023	-855.94977	622.57343	1163.61047	-877.03552	497.79327	1139.22021	-990.94849	252.38513	1129.16821	-1055.13062	77.81771	1079.12061	-1100.42151	59.94506	1035.39514	-907.03064	29.70897	1074.19043	-860.7431	1691.84546	982.84283	NaN	NaN	NaN	NaN	NaN	NaN	NaN	NaN	NaN	NaN	NaN	NaN	NaN	NaN	NaN	NaN	NaN	NaN	NaN	NaN	NaN
59	0.58	-757.3869	1646.94177	916.61853	-744.32025	1644.97302	1048.28601	-890.3454	1593.96375	933.32819	-875.24725	1597.08594	1061.88684	-886.05157	1438.88904	997.02393	-919.88861	1110.10767	1007.81195	-774.633	1363.66248	991.91754	-734.68243	1190.02087	993.53363	-953.68652	1271.62805	1086.05359	-844.48517	1390.28088	833.90491	-896.51569	1196.2865	768.11719	-930.83716	1088.92322	762.00201	-948.51758	939.19061	741.4801	-918.80817	812.62262	782.47253	-980.98346	824.52814	747.4425	-963.28979	734.33154	748.14374	-813.27362	1400.77612	1153.73633	-819.22876	1207.17456	1256.3739	-782.41022	1093.14307	1274.76758	-709.83356	999.34174	1281.97607	-589.77228	920.85474	1229.66956	-629.1037	889.41888	1273.81445	-555.80188	850.5495	1267.85706	-734.80353	952.78003	906.08557	-751.65143	955.54059	1125.4342	-895.16986	975.45251	920.15167	-902.08661	981.50403	1088.92139	-745.9715	638.76123	835.16132	-691.35443	485.55951	866.35284	-647.11932	236.35777	877.71887	-581.40094	75.30663	915.03033	-605.39667	52.82511	968.23077	-434.16827	86.85213	896.53894	-848.26416	621.88184	1164.01978	-870.27191	497.1312	1139.84912	-987.87695	253.12416	1129.75916	-1054.42725	79.37136	1079.71497	-1099.91272	62.12875	1035.99304	-907.05096	29.67697	1074.32678	-850.92474	1690.44275	982.69702	NaN	NaN	NaN	NaN	NaN	NaN	NaN	NaN	NaN	NaN	NaN	NaN	NaN	NaN	NaN	NaN	NaN	NaN	NaN	NaN	NaN
60	0.59	-747.4718	1645.65613	916.48523	-734.47113	1643.66516	1048.11792	-880.42023	1592.62695	933.1991	-865.48932	1595.81799	1061.78003	-876.34534	1437.61096	996.79712	-910.06036	1108.68958	1007.23022	-764.76135	1362.46826	991.8877	-724.83618	1188.8429	993.68536	-944.08978	1270.38611	1085.88599	-834.26624	1388.729	833.62683	-886.99823	1194.94397	768.30487	-922.05017	1087.82947	762.40149	-940.49786	938.11133	742.35992	-912.26904	811.44171	783.08392	-974.25983	823.76141	748.35767	-957.54156	733.48712	748.94238	-803.51471	1399.44714	1153.67688	-808.67963	1205.79041	1256.29468	-771.07648	1091.9574	1274.60559	-697.97327	998.61804	1281.44128	-577.74927	920.88861	1228.4801	-616.55505	889.30548	1272.93823	-543.05878	850.76801	1266.38538	-724.38831	951.68378	906.21356	-741.85144	954.49335	1125.69885	-884.65546	974.09882	919.22888	-892.46777	980.01526	1088.04492	-736.72272	636.83301	834.02295	-683.79138	482.96524	866.60571	-632.21094	235.92213	878.48022	-561.25238	77.0233	915.78162	-584.69116	54.12004	969.01227	-413.57654	91.78834	898.0304	-840.46625	621.28546	1164.2959	-863.23621	496.42935	1140.35327	-984.37292	254.03265	1130.33765	-1053.52039	81.13728	1080.44287	-1099.31311	64.66161	1036.93152	-906.95251	29.57134	1074.41248	-841.03571	1689.14624	982.53156	NaN	NaN	NaN	NaN	NaN	NaN	NaN	NaN	NaN	NaN	NaN	NaN	NaN	NaN	NaN	NaN	NaN	NaN	NaN	NaN	NaN
61	0.6	-737.59332	1644.42737	916.24921	-724.57959	1642.48694	1047.95679	-870.46979	1591.42004	932.89532	-855.89935	1594.71313	1061.79211	-866.59229	1436.46558	996.59619	-900.04852	1107.36279	1006.65674	-754.79907	1361.33545	991.82593	-714.87451	1187.79321	993.82019	-934.46338	1269.28064	1085.66492	-824.05688	1387.27112	833.41095	-877.47137	1193.67896	768.48987	-912.80341	1086.69873	762.65759	-932.39215	937.06506	742.82465	-905.54132	810.38507	784.0813	-967.16473	823.06915	748.8269	-951.1947	732.65308	749.67157	-793.77057	1398.22998	1153.63733	-798.18823	1204.50122	1256.07837	-759.84479	1090.86694	1274.28064	-686.33801	997.83484	1280.73328	-566.03558	920.64368	1227.25317	-604.44623	888.81689	1271.85132	-530.83606	850.68268	1264.94849	-713.974	950.76904	906.22925	-732.04956	953.41101	1125.82104	-874.19373	973.05664	918.28333	-882.69891	978.78082	1087.052	-726.96283	635.09521	833.12701	-675.47852	481.01337	867.09894	-618.51837	235.82135	878.99487	-543.35736	78.48264	916.21356	-566.53467	54.90851	968.84137	-395.31866	95.5345	900.30829	-832.2597	620.81073	1164.45007	-855.77557	495.91589	1140.8302	-980.54486	255.14885	1131.00159	-1052.44885	83.17897	1081.52271	-1098.59985	67.55541	1038.0459	-907.01868	29.59366	1074.672	-831.12866	1687.94067	982.30817	NaN	NaN	NaN	NaN	NaN	NaN	NaN	NaN	NaN	NaN	NaN	NaN	NaN	NaN	NaN	NaN	NaN	NaN	NaN	NaN	NaN
62	0.61	-727.61932	1643.39746	916.03333	-714.64569	1641.45374	1047.70337	-860.51123	1590.37842	932.6546	-845.71222	1593.6333	1061.22632	-856.71204	1435.37109	996.29077	-890.03412	1106.25623	1006.15509	-744.85095	1360.33667	991.76923	-704.73804	1186.89246	993.90393	-924.77667	1268.33704	1085.42163	-813.85138	1386.0105	833.09399	-867.40387	1192.41663	768.48517	-903.18463	1085.64246	762.81635	-923.74774	936.07764	743.17059	-897.20264	809.21118	784.4726	-959.29938	822.30432	749.2934	-943.96375	731.76013	750.3205	-784.01074	1397.17749	1153.50439	-787.71796	1203.42151	1255.71265	-748.72314	1089.89856	1273.76111	-674.94867	997.01337	1279.91809	-554.86951	920.12775	1225.82166	-592.94897	888.33112	1270.77698	-519.28882	850.41528	1263.42871	-703.51624	950.09503	906.02155	-721.97754	952.47992	1125.65161	-863.64154	972.16711	917.32611	-872.76965	977.64929	1086.06836	-716.73907	633.72491	832.83197	-666.31787	479.7178	867.79242	-605.88239	235.81947	879.15765	-528.18988	79.30619	916.51733	-551.84448	55.17519	968.83337	-379.71176	97.74598	903.16998	-823.72766	620.47479	1164.35681	-847.97852	495.58609	1141.23401	-976.2478	256.46811	1131.56836	-1051.20947	85.61968	1082.49548	-1097.70203	70.8338	1039.28271	-906.9455	29.53991	1074.82251	-821.18896	1686.93237	982.00775	NaN	NaN	NaN	NaN	NaN	NaN	NaN	NaN	NaN	NaN	NaN	NaN	NaN	NaN	NaN	NaN	NaN	NaN	NaN	NaN	NaN
